<svg width="58" height="58" viewBox="0 0 58 58" fill="none" xmlns="http://www.w3.org/2000/svg">
<circle opacity="0.2" cx="45" cy="13" r="13" fill="#D91141"/>
<path d="M24.7791 2.32001C18.2854 2.32001 14.5586 5.97914 13.3626 8.82462C10.3896 9.42086 7.75181 11.3946 6.20553 14.2145C4.00385 18.2328 4.12256 23.3914 6.52724 28.8074C4.887 30.8908 4.24848 33.5876 4.85748 36.0189C5.4514 38.3853 7.13329 40.2599 9.64701 41.3839C8.81297 44.5658 9.62508 46.6832 10.5125 47.9384C11.7676 49.7143 13.9326 50.8088 16.5368 51.006C17.6643 54.029 20.5544 55.68 24.7791 55.68C26.5307 55.68 28.037 54.9203 29.0068 53.6953C29.3617 54.1396 29.7862 54.523 30.2687 54.8304C30.3383 54.5462 30.4464 54.2427 30.6494 53.9445L31.32 52.737C30.6008 52.1906 30.16 51.3231 30.16 50.2652V9.49751C30.16 4.64059 31.6467 4.64001 33.2208 4.64001C38.9489 4.64001 42.0504 8.03699 42.6594 10.1772L42.8701 10.9158L43.6337 11.0109C46.1949 11.3253 48.4305 12.9002 49.7622 15.3292C51.6739 18.8185 51.4445 23.4481 49.121 28.3792C48.7162 28.8525 46.3315 31.32 40.6 31.32C39.9597 31.32 39.44 31.8385 39.44 32.48C39.44 33.1215 39.9597 33.64 40.6 33.64C45.6587 33.64 48.6043 31.8969 50.0137 30.7241C50.9011 32.086 51.2334 33.8051 50.861 35.3641C50.7462 35.8444 50.5392 36.3812 50.2062 36.9206L51.4569 39.1319C52.2631 38.2074 52.8276 37.1191 53.1176 35.9011C53.6976 33.4721 53.0571 30.7669 51.4795 28.7961C53.8784 23.3835 53.9939 18.2305 51.7922 14.2145C50.2459 11.3934 47.6081 9.4197 44.6351 8.82462C43.4414 5.97914 39.7145 2.32001 33.2208 2.32001C31.2372 2.32001 29.863 2.87971 29 4.13251C28.1369 2.87971 26.7627 2.32001 24.7791 2.32001ZM24.7791 4.64001C26.3532 4.64001 27.84 4.64059 27.84 9.49751V50.2652C27.84 52.0574 26.5528 53.36 24.7791 53.36C21.2469 53.36 19.142 52.0953 18.526 49.6013L18.3085 48.72H17.4C15.1763 48.72 13.3577 47.9495 12.4065 46.6039C11.4495 45.249 11.3649 43.341 12.1641 41.0849L12.5583 39.9724L11.4414 39.5963C9.08658 38.8052 7.58864 37.3723 7.10724 35.4548C6.627 33.5408 7.24916 31.3705 8.73396 29.7952L9.24599 29.2515C10.1264 28.385 12.141 26.68 14.3844 26.68C18.311 26.68 19.8958 28.4743 19.9805 28.5741C20.3819 29.0659 21.1039 29.143 21.6027 28.7463C22.1027 28.3461 22.1853 27.6161 21.7862 27.1173C21.6969 27.0036 19.5244 24.36 14.3844 24.36C11.8092 24.36 9.60308 25.8434 8.28763 26.9813C6.54647 22.5791 6.50823 18.4856 8.23779 15.3292C9.56947 12.9002 11.8028 11.3265 14.364 11.0109L15.1276 10.9158L15.3383 10.1772C15.9484 8.03699 19.0499 4.64001 24.7791 4.64001ZM22.04 12.76C21.3997 12.76 20.88 13.2785 20.88 13.92C20.88 14.7366 20.5447 17.4 16.24 17.4C15.5997 17.4 15.08 17.9185 15.08 18.56C15.08 19.2015 15.5997 19.72 16.24 19.72C23.0051 19.72 23.2 14.5139 23.2 13.92C23.2 13.2785 22.6803 12.76 22.04 12.76ZM37.12 15.08C36.4797 15.08 35.96 15.5985 35.96 16.24C35.96 18.8894 38.2289 24.36 45.24 24.36C45.8803 24.36 46.4 23.8415 46.4 23.2C46.4 22.5585 45.8803 22.04 45.24 22.04C39.5583 22.04 38.28 17.7445 38.28 16.24C38.28 15.5985 37.7603 15.08 37.12 15.08ZM14.1126 33.6559C13.4746 33.5468 12.8814 33.9775 12.7758 34.6097C12.6703 35.2407 13.0975 35.8386 13.7297 35.9441C19.6526 36.9383 19.72 42.8597 19.72 42.92C19.72 43.5615 20.2397 44.08 20.88 44.08C21.5203 44.08 22.04 43.5615 22.04 42.92C22.04 40.1766 20.3835 34.708 14.1126 33.6559ZM45.1811 34.8C43.8993 34.8 43.2007 36.192 42.9676 36.54L32.5955 55.2156C32.4795 55.3316 32.48 55.5636 32.48 55.7956C32.48 56.9556 33.5277 58 34.6935 58H55.7865C56.9511 58 58 57.0716 58 55.7956C58 55.5636 58.0004 55.4476 57.8844 55.2156L47.3969 36.6556C47.1637 36.1916 46.4629 34.8 45.1811 34.8ZM45.1811 37.3511C45.1811 37.4671 45.2966 37.5845 45.2966 37.5845L55.4353 55.68H35.0447L45.0655 37.5845C45.0655 37.5845 45.1811 37.4671 45.1811 37.3511ZM44.2499 42.92C44.1339 42.92 44.0165 43.0351 44.0165 43.1511V49.6489C44.0165 49.7649 44.1327 49.88 44.2499 49.88H46.1145C46.2305 49.88 46.3456 49.7649 46.3456 49.6489V43.1511C46.3456 43.0351 46.2317 42.92 46.1145 42.92H44.2499ZM44.2499 52.2C44.1327 52.2 44.0165 52.3151 44.0165 52.4311V54.2889C44.0165 54.4049 44.1339 54.52 44.2499 54.52H46.1145C46.2317 54.52 46.3456 54.4049 46.3456 54.2889V52.4311C46.3456 52.3151 46.2305 52.2 46.1145 52.2H44.2499Z" fill="#D91141"/>
</svg>
