<svg width="58" height="58" viewBox="0 0 58 58" fill="none" xmlns="http://www.w3.org/2000/svg">
<path d="M38.8831 3C37.1873 3 35.8627 3.35219 34.9631 3.70438C34.0635 4.05656 33.5238 4.43938 33.5238 4.43938C33.4816 4.46617 33.4395 4.4968 33.4012 4.53125L30.645 7.31813L25.5 12.4631C25.3622 12.5473 25.2473 12.6622 25.1631 12.8L4.46063 33.5944C4.38789 33.6556 4.32664 33.7284 4.27688 33.8088C4.25391 33.8394 4.23477 33.87 4.21563 33.9006C4.10461 34.0116 3.95148 34.092 3.84812 34.2069C1.87281 36.3659 1 39.0112 1 41.22C1 47.2991 5.68563 52 11.78 52C14.7162 52 16.9786 51.0583 18.4563 49.5194C19.9339 47.9805 20.6 45.9056 20.6 43.7925C20.6 41.442 19.7999 39.5088 18.4256 38.2188C17.0513 36.9287 15.1564 36.32 13.0969 36.32C11.4355 36.32 9.90039 36.8177 8.74813 37.79C7.59586 38.7623 6.88 40.24 6.88 41.955C6.88 42.9427 7.2743 43.915 7.9825 44.7113C8.6907 45.5075 9.76641 46.12 11.045 46.12C12.3274 46.12 13.3113 45.6338 13.8931 45.0175C14.475 44.4012 14.72 43.8308 14.72 43.18C14.7238 42.8278 14.5401 42.4986 14.2338 42.3187C13.9276 42.1426 13.5524 42.1426 13.2462 42.3187C12.9399 42.4986 12.7562 42.8278 12.76 43.18C12.7332 43.2566 12.649 43.4939 12.4844 43.67C12.247 43.9188 11.8604 44.16 11.045 44.16C10.3636 44.16 9.85063 43.8691 9.4525 43.425C9.05437 42.9809 8.84 42.3723 8.84 41.955C8.84 40.753 9.26875 39.9108 10.0037 39.2906C10.7388 38.6705 11.8183 38.28 13.0969 38.28C14.7659 38.28 16.1249 38.7662 17.0781 39.6581C18.0313 40.5501 18.64 41.8708 18.64 43.7925C18.64 45.4998 18.1232 47.0541 17.0475 48.1719C15.9718 49.2897 14.3066 50.04 11.78 50.04C6.66945 50.04 2.96 46.3191 2.96 41.22C2.96 39.5356 3.6682 37.2923 5.2875 35.5238C6.9068 33.7552 9.39125 32.4 13.2194 32.4C16.7221 32.4 19.0611 33.4221 20.7225 34.9113C22.3839 36.4004 23.3945 38.4331 23.9688 40.5156C25.1172 44.6806 24.52 48.9069 24.52 48.9069C24.4511 49.3586 24.7038 49.7988 25.1287 49.9673C25.5536 50.1357 26.0359 49.9864 26.2963 49.6113L33.4931 39.4131C33.6884 39.283 33.83 39.0877 33.8913 38.8619L37.7194 33.4106C37.7309 33.3991 37.7385 33.3915 37.75 33.38L37.7806 33.3494C37.8725 33.2537 37.9491 33.1388 37.995 33.0125L42.7725 26.2444C42.807 26.2061 42.8376 26.164 42.8644 26.1219L42.895 26.0913C42.9409 26.0453 42.983 25.9917 43.0175 25.9381L43.0481 25.8769C43.0481 25.8654 43.0481 25.8577 43.0481 25.8463L46.2331 21.3138C46.2523 21.3061 46.2752 21.2946 46.2944 21.2831L46.325 21.2525C46.3862 21.1874 46.436 21.1147 46.4781 21.0381C46.5164 20.9807 46.547 20.9195 46.57 20.8544L49.8162 16.2913C49.9311 16.1305 49.9962 15.9391 50 15.74C50 11.5827 48.7712 8.37086 46.7231 6.21563C44.6751 4.06039 41.8576 3 38.8831 3ZM38.8831 4.96C41.402 4.96 43.63 5.82133 45.2838 7.56313C46.8954 9.25898 47.9558 11.8698 48.0094 15.495L46.4781 17.6388C46.0494 13.8948 44.453 11.0812 42.0988 9.30875C39.8899 7.64734 37.1184 6.87406 34.1975 6.82812C34.098 6.82812 33.9908 6.82812 33.8913 6.82812L34.7181 6.00125C34.7181 6.00125 34.967 5.78305 35.6675 5.51125C36.368 5.23945 37.4514 4.96 38.8831 4.96ZM34.1669 8.78813C36.7509 8.82641 39.1281 9.51164 40.935 10.8706C43.3008 12.6507 44.8129 15.6175 44.6406 20.2725L42.9256 22.7225C42.5352 20.0045 41.5054 17.3325 39.4956 15.2806C37.4782 13.2211 34.477 11.8851 30.4306 11.8506C29.9215 11.8468 29.3779 11.8698 28.8381 11.9119L31.7781 8.94125C32.5897 8.83789 33.3859 8.77664 34.1669 8.78813ZM30.4 13.78C34.0099 13.7915 36.4408 14.9476 38.0869 16.6281C40.2268 18.814 41.1073 22.0641 41.1494 25.2338L37.505 30.3787C36.4102 26.9028 34.3391 24.1313 31.5944 22.2325C28.842 20.3299 25.4196 19.3002 21.6413 19.1394L26.6025 14.1475C27.9998 13.9025 29.2554 13.7762 30.4 13.78ZM21.1206 21.0688C24.7765 21.1491 27.9845 22.1215 30.4919 23.8556C33.2673 25.7773 35.2005 28.6446 36.0044 32.4919L33.4012 36.1975C31.3991 29.372 25.2856 24.5026 17.9356 24.0088C17.5605 23.982 17.1853 23.9781 16.8025 23.9781L19.6812 21.0994C20.1674 21.0802 20.6498 21.0573 21.1206 21.0688ZM16.2513 25.9381C24.0951 25.7084 30.5684 30.953 31.9006 38.3106L26.6025 45.8138C26.5795 44.1523 26.4532 42.0852 25.8675 39.9644C25.2244 37.6369 24.0645 35.2596 22.0394 33.4412C20.0143 31.6229 17.1126 30.44 13.2194 30.44C12.0671 30.44 11.0182 30.5663 10.0344 30.7769L14.7506 26.0606C15.2521 26.0032 15.7574 25.9534 16.2513 25.9381Z" fill="#D91141"/>
<circle opacity="0.2" cx="45" cy="13" r="13" fill="#D91141"/>
</svg>
