<svg width="58" height="58" viewBox="0 0 58 58" fill="none" xmlns="http://www.w3.org/2000/svg">
<path d="M29 0C26.1544 0 23.7528 1.57234 20.1912 3.4075C16.6297 5.24266 11.8492 7.45844 4.38623 9.09875L3.47998 9.31625V10.2225C3.47998 27.9941 9.71045 39.8705 15.95 47.2337C22.1895 54.597 28.5287 57.5287 28.5287 57.5287L29.0362 57.7825L29.5437 57.5287C29.5437 57.5287 54.52 44.6237 54.52 10.2225V9.31625L53.6137 9.09875C46.1508 7.45844 41.3703 5.24266 37.8087 3.4075C34.2472 1.57234 31.8456 0 29 0ZM29 2.32C30.9076 2.32 33.1189 3.60234 36.7575 5.47375C40.2148 7.25 45.0769 9.42953 52.1275 11.0925C51.7015 42.5484 30.4545 54.3478 28.9637 55.1362C28.2433 54.7873 23.2226 52.277 17.69 45.7475C11.8583 38.8645 6.08545 27.7947 5.87248 11.0925C12.9231 9.42953 17.7851 7.25 21.2425 5.47375C24.8811 3.60234 27.0923 2.32 29 2.32ZM37.9175 16.965L37.3012 17.9438L27.8762 32.5887L21.6412 26.97L20.8075 26.2087L19.2487 27.9125L20.1187 28.71L27.2962 35.235L28.3112 36.1413L29.0725 34.9813L39.2587 19.1762L39.875 18.1975L37.9175 16.965Z" fill="#D91141"/>
<circle opacity="0.2" cx="45" cy="13" r="13" fill="#D91141"/>
</svg>
