<svg width="58" height="58" viewBox="0 0 58 58" fill="none" xmlns="http://www.w3.org/2000/svg">
<path d="M31.3223 3.46411C31.0146 3.46354 30.7194 3.58519 30.5014 3.8023C30.2834 4.01941 30.1606 4.31421 30.16 4.62185C30.16 4.62185 30.1557 5.9774 31.0595 7.31568C31.9632 8.65395 33.7865 10.0034 36.9659 10.4286C38.7191 10.663 40.7933 10.9548 42.5507 11.9511C44.3082 12.9474 45.8202 14.5778 46.5495 17.9369C47.1605 20.752 48.2817 22.4446 49.1867 23.9204C50.0918 25.3963 50.8046 26.6402 51.0445 29.111C51.074 29.4174 51.224 29.6996 51.4615 29.8955C51.699 30.0914 52.0046 30.1849 52.311 30.1554C52.6175 30.126 52.8997 29.976 53.0955 29.7385C53.2914 29.501 53.3849 29.1954 53.3555 28.889C53.0769 26.0202 52.1025 24.2378 51.1646 22.7083C50.2267 21.1789 49.3479 19.8874 48.8174 17.443C47.9726 13.5521 45.9516 11.2118 43.6949 9.93247C41.4381 8.65314 39.0183 8.36444 37.2741 8.1313C34.5909 7.77242 33.5136 6.80316 32.983 6.01747C32.4524 5.23179 32.48 4.6581 32.48 4.6581C32.4845 4.50312 32.4579 4.34881 32.4018 4.20429C32.3457 4.05976 32.2612 3.92795 32.1533 3.81664C32.0453 3.70534 31.9162 3.61679 31.7735 3.55624C31.6307 3.49569 31.4773 3.46437 31.3223 3.46411ZM22.0219 4.62411C21.7146 4.62892 21.4218 4.75543 21.2078 4.97588C20.9937 5.19633 20.8758 5.49271 20.88 5.79997C20.88 5.79997 20.8739 6.87807 20.4246 8.10185C19.9754 9.32563 19.1866 10.5458 17.4906 11.0721C16.1174 11.4981 14.3263 11.9367 12.3069 13.1542C12.3061 13.1542 12.3054 13.1542 12.3046 13.1542C9.51635 14.8366 6.96001 17.9351 6.96001 23.055C6.96001 25.407 6.50477 26.222 5.92915 27.3393C5.35353 28.4565 4.64001 29.9 4.64001 32.48C4.63783 32.6337 4.66623 32.7863 4.72355 32.9289C4.78087 33.0716 4.86597 33.2014 4.9739 33.3109C5.08183 33.4204 5.21045 33.5073 5.35227 33.5666C5.49408 33.6259 5.64628 33.6565 5.80001 33.6565C5.95374 33.6565 6.10593 33.6259 6.24775 33.5666C6.38957 33.5073 6.51818 33.4204 6.62611 33.3109C6.73405 33.2014 6.81914 33.0716 6.87646 32.9289C6.93378 32.7863 6.96218 32.6337 6.96001 32.48C6.96001 30.275 7.40648 29.5361 7.99087 28.4018C8.57525 27.2676 9.28001 25.7617 9.28001 23.055C9.28001 18.6637 11.1974 16.5328 13.5031 15.1411C15.2166 14.1082 16.7037 13.7457 18.1794 13.2879C20.6884 12.5092 22.0021 10.5393 22.6041 8.89935C23.2062 7.25938 23.2 5.79997 23.2 5.79997C23.2021 5.64478 23.1731 5.49073 23.1146 5.34696C23.0561 5.20319 22.9694 5.07262 22.8595 4.96297C22.7497 4.85333 22.6189 4.76684 22.4751 4.70864C22.3312 4.65043 22.1771 4.62169 22.0219 4.62411ZM42.8679 23.2181C42.5721 23.2308 42.2923 23.3562 42.0859 23.5685C41.8795 23.7807 41.7621 24.0639 41.7577 24.36C41.7577 31.1911 40.5977 34.4133 40.5977 37.12C40.5977 38.1505 40.6272 40.2021 40.6272 40.745C40.6272 44.6115 42.9177 47.8656 42.9177 53.36C42.9156 53.5137 42.944 53.6663 43.0013 53.8089C43.0586 53.9516 43.1437 54.0814 43.2516 54.1909C43.3596 54.3004 43.4882 54.3873 43.63 54.4466C43.7718 54.5059 43.924 54.5365 44.0777 54.5365C44.2315 54.5365 44.3837 54.5059 44.5255 54.4466C44.6673 54.3873 44.7959 54.3004 44.9039 54.1909C45.0118 54.0814 45.0969 53.9516 45.1542 53.8089C45.2115 53.6663 45.2399 53.5137 45.2377 53.36C45.2377 47.2544 42.9472 43.5485 42.9472 40.745C42.9472 40.1279 42.9177 38.1078 42.9177 37.12C42.9177 35.9707 43.274 33.8518 43.6065 31.1025C44.1437 31.918 44.7941 32.7171 45.6999 33.4044C45.8208 33.5019 45.9601 33.5743 46.1095 33.617C46.2588 33.6598 46.4153 33.6721 46.5695 33.6532C46.7237 33.6343 46.8726 33.5847 47.0073 33.5072C47.1419 33.4297 47.2597 33.3259 47.3535 33.2021C47.4473 33.0782 47.5152 32.9368 47.5533 32.7861C47.5914 32.6355 47.5989 32.4788 47.5753 32.3252C47.5516 32.1716 47.4974 32.0244 47.4158 31.8922C47.3341 31.76 47.2268 31.6455 47.1001 31.5556C44.1054 29.2836 44.0777 25.5192 44.0777 24.36C44.0754 24.2049 44.0421 24.0518 43.9796 23.9099C43.9171 23.7679 43.8268 23.6399 43.714 23.5335C43.6012 23.427 43.4682 23.3442 43.3229 23.2901C43.1776 23.2359 43.0229 23.2114 42.8679 23.2181ZM15.0302 25.5381C14.7344 25.5508 14.4546 25.6762 14.2482 25.8885C14.0418 26.1007 13.9244 26.3839 13.92 26.68C13.92 27.84 13.9122 31.8763 10.764 35.1557C10.6572 35.2652 10.5732 35.3948 10.5167 35.537C10.4603 35.6792 10.4325 35.8311 10.4349 35.984C10.4374 36.137 10.4701 36.2879 10.5311 36.4282C10.5922 36.5685 10.6803 36.6953 10.7906 36.8013C10.9008 36.9074 11.0309 36.9906 11.1735 37.0462C11.316 37.1017 11.4681 37.1286 11.621 37.1251C11.7739 37.1217 11.9247 37.088 12.0646 37.0261C12.2044 36.9642 12.3307 36.8752 12.436 36.7643C13.524 35.631 14.2445 34.4325 14.7991 33.2503C14.9178 33.6792 15.0158 34.2176 15.1389 34.587C15.7434 36.4004 16.24 37.5066 16.24 38.28V41.76C16.24 42.34 15.4787 44.1656 14.5929 46.2323C13.7071 48.2991 12.76 50.75 12.76 53.36C12.7578 53.5137 12.7862 53.6663 12.8436 53.8089C12.9009 53.9516 12.986 54.0814 13.0939 54.1909C13.2018 54.3004 13.3304 54.3873 13.4723 54.4466C13.6141 54.5059 13.7663 54.5365 13.92 54.5365C14.0737 54.5365 14.2259 54.5059 14.3678 54.4466C14.5096 54.3873 14.6382 54.3004 14.7461 54.1909C14.854 54.0814 14.9391 53.9516 14.9965 53.8089C15.0538 53.6663 15.0822 53.5137 15.08 53.36C15.08 51.33 15.8729 49.1409 16.7271 47.1476C17.5814 45.1544 18.56 43.5 18.56 41.76V38.28C18.56 36.7333 17.8966 35.5196 17.3411 33.8529C16.7856 32.1863 16.24 30.0311 16.24 26.68C16.2377 26.5249 16.2043 26.3718 16.1419 26.2299C16.0794 26.0879 15.9891 25.9599 15.8763 25.8535C15.7635 25.747 15.6305 25.6642 15.4852 25.6101C15.3398 25.5559 15.1851 25.5314 15.0302 25.5381ZM29 34.8L23.2 42.92H27.84L23.2 51.04L34.8 40.6H30.16L34.8 34.8H29Z" fill="#D91141"/>
<circle opacity="0.2" cx="45" cy="13" r="13" fill="#D91141"/>
</svg>
