<svg width="58" height="58" viewBox="0 0 58 58" fill="none" xmlns="http://www.w3.org/2000/svg">
<path d="M29.1835 1.8125C28.9409 1.81475 28.7035 1.88314 28.4968 2.01028C28.2902 2.13743 28.1221 2.31853 28.0107 2.5341C27.8993 2.74966 27.8488 2.99151 27.8646 3.23364C27.8805 3.47576 27.962 3.70898 28.1006 3.9082C28.85 5.0175 28.7757 5.49859 28.7168 5.79547C28.6476 6.14444 28.4453 6.41256 28.0553 6.91015C27.6652 7.40775 27.0632 8.20888 27.0516 9.32078V9.32305C27.038 10.6521 27.7638 11.5677 28.2184 12.0667C28.3346 12.2023 28.4769 12.3131 28.6368 12.3927C28.7967 12.4723 28.971 12.5189 29.1493 12.5298C29.3275 12.5408 29.5062 12.5159 29.6746 12.4565C29.843 12.3971 29.9979 12.3045 30.1298 12.1842C30.2618 12.0639 30.3683 11.9183 30.443 11.7561C30.5177 11.5939 30.559 11.4183 30.5646 11.2398C30.5702 11.0613 30.5398 10.8834 30.4754 10.7169C30.4109 10.5503 30.3137 10.3984 30.1895 10.2701C29.9318 9.98728 29.7156 9.61042 29.7182 9.35023C29.7205 9.13393 29.7974 9.00889 30.1532 8.555C30.509 8.1011 31.1198 7.39212 31.3336 6.31429C31.516 5.39549 31.3696 3.98081 30.3118 2.41515C30.1893 2.22823 30.0218 2.07509 29.8246 1.96979C29.6275 1.86449 29.407 1.8104 29.1835 1.8125ZM48.3167 8.78383C47.9631 8.77275 47.6196 8.90258 47.3617 9.14476C47.1038 9.38693 46.9527 9.72163 46.9415 10.0752C46.9238 10.4591 46.8118 10.8752 46.6266 11.0562C46.4716 11.2079 46.3294 11.2407 45.7566 11.31C45.1838 11.3793 44.2501 11.4505 43.3369 12.0622C42.5616 12.582 41.6633 13.6865 41.3046 15.5422C41.2676 15.7156 41.2654 15.8947 41.2984 16.069C41.3314 16.2432 41.3988 16.4092 41.4966 16.5571C41.5944 16.705 41.7208 16.8319 41.8683 16.9304C42.0158 17.0289 42.1814 17.097 42.3555 17.1308C42.5296 17.1645 42.7087 17.1632 42.8823 17.1269C43.0559 17.0906 43.2205 17.0201 43.3665 16.9194C43.5125 16.8188 43.637 16.69 43.7327 16.5407C43.8284 16.3913 43.8933 16.2244 43.9237 16.0497C44.1775 14.7363 44.5684 14.4472 44.8209 14.278C45.1164 14.08 45.4485 14.0367 46.076 13.9608C46.7035 13.8848 47.6962 13.7415 48.4912 12.9639C49.4428 12.0337 49.5771 10.8716 49.6081 10.1976C49.6189 10.0193 49.5937 9.84075 49.5342 9.67241C49.4746 9.50407 49.3819 9.3494 49.2615 9.21756C49.141 9.08572 48.9954 8.9794 48.8331 8.9049C48.6708 8.83039 48.4952 8.78922 48.3167 8.78383ZM10.1228 8.79742C9.79008 8.79772 9.46945 8.92236 9.22386 9.14688C8.97827 9.3714 8.82545 9.67958 8.79537 10.011C8.7653 10.3424 8.86015 10.673 9.06131 10.9381C9.26247 11.2031 9.55542 11.3835 9.88267 11.4437C11.1961 11.6975 11.4829 12.0907 11.6521 12.3431C11.8501 12.6386 11.8956 12.9708 11.9716 13.5983C12.0475 14.2258 12.1886 15.2184 12.9662 16.0134C13.8964 16.965 15.0585 17.0971 15.7325 17.1281C15.9104 17.1414 16.0892 17.1188 16.2582 17.0618C16.4273 17.0048 16.5831 16.9144 16.7166 16.7961C16.8502 16.6777 16.9586 16.5338 17.0355 16.3728C17.1124 16.2119 17.1562 16.0371 17.1644 15.8589C17.1726 15.6807 17.1449 15.5026 17.0831 15.3353C17.0213 15.1679 16.9265 15.0147 16.8044 14.8846C16.6823 14.7545 16.5354 14.6503 16.3723 14.578C16.2092 14.5057 16.0332 14.4668 15.8549 14.4637C15.471 14.4461 15.0549 14.3318 14.8738 14.1466C14.7222 13.9915 14.6894 13.8494 14.6201 13.2766C14.5508 12.7037 14.4796 11.7701 13.8679 10.8569C13.3481 10.0816 12.2436 9.18325 10.3879 8.82461C10.3007 8.80672 10.2119 8.79761 10.1228 8.79742ZM29 15.66C28.8099 15.6572 28.6215 15.695 28.4472 15.771C21.3733 16.0791 15.66 21.853 15.66 29C15.66 36.3438 21.6574 42.34 29 42.34C36.3437 42.34 42.34 36.3437 42.34 29C42.34 21.8508 36.6241 16.0756 29.546 15.771C29.3739 15.696 29.1878 15.6582 29 15.66ZM29 18.3289C34.8965 18.3289 39.6711 23.1047 39.6711 29C39.6711 34.8966 34.8966 39.6711 29 39.6711C23.1047 39.6711 18.3289 34.8964 18.3289 29C18.3289 23.1049 23.1049 18.3289 29 18.3289ZM33.06 22.9349C31.7029 22.9349 30.4884 23.8086 30.0558 25.0963C29.993 25.2641 29.9646 25.4428 29.9723 25.6217C29.9801 25.8007 30.0238 25.9762 30.1008 26.1379C30.1778 26.2996 30.2866 26.4442 30.4207 26.5629C30.5548 26.6817 30.7115 26.7722 30.8813 26.8291C31.0511 26.886 31.2307 26.9082 31.4093 26.8942C31.5878 26.8802 31.7618 26.8304 31.9207 26.7478C32.0796 26.6652 32.2203 26.5514 32.3343 26.4132C32.4483 26.2751 32.5333 26.1154 32.5842 25.9437C32.6528 25.7396 32.8441 25.6038 33.06 25.6038C33.2759 25.6038 33.4672 25.7396 33.5358 25.9437C33.5868 26.1154 33.6718 26.2751 33.7858 26.4132C33.8998 26.5514 34.0404 26.6652 34.1993 26.7478C34.3583 26.8304 34.5322 26.8802 34.7108 26.8942C34.8893 26.9082 35.0689 26.886 35.2387 26.8291C35.4086 26.7722 35.5652 26.6817 35.6993 26.5629C35.8334 26.4442 35.9422 26.2996 36.0192 26.1379C36.0963 25.9762 36.14 25.8007 36.1477 25.6217C36.1554 25.4428 36.127 25.2641 36.0642 25.0963C35.6317 23.8086 34.4171 22.9349 33.06 22.9349ZM25.0012 22.9893C23.66 22.9633 22.4429 23.7868 21.9562 25.0352C21.8925 25.1985 21.8616 25.3728 21.8652 25.5481C21.8689 25.7234 21.9071 25.8962 21.9775 26.0568C22.048 26.2173 22.1494 26.3624 22.276 26.4838C22.4025 26.6051 22.5517 26.7004 22.7151 26.764C22.8785 26.8277 23.0528 26.8586 23.228 26.8549C23.4033 26.8512 23.5762 26.813 23.7367 26.7425C23.8973 26.672 24.0423 26.5706 24.1637 26.444C24.285 26.3174 24.3802 26.1682 24.4438 26.0048C24.5279 25.7892 24.7336 25.654 24.9491 25.6582H24.9513C25.1588 25.662 25.3544 25.7952 25.4362 26.0048C25.4998 26.1682 25.595 26.3174 25.7164 26.444C25.8377 26.5706 25.9828 26.672 26.1433 26.7425C26.3038 26.813 26.4767 26.8512 26.652 26.8549C26.8273 26.8586 27.0016 26.8277 27.1649 26.764C27.3283 26.7004 27.4775 26.6051 27.6041 26.4838C27.7306 26.3624 27.832 26.2173 27.9025 26.0568C27.973 25.8962 28.0111 25.7234 28.0148 25.5481C28.0185 25.3728 27.9876 25.1985 27.9238 25.0352C27.4535 23.8296 26.2995 23.0133 25.0012 22.9893ZM49.6172 25.8508C48.7583 25.8652 47.6694 26.1472 46.4952 26.9405C46.3479 27.0377 46.2214 27.1631 46.1229 27.3094C46.0244 27.4558 45.9559 27.6202 45.9214 27.7932C45.8869 27.9662 45.887 28.1444 45.9218 28.3173C45.9566 28.4903 46.0254 28.6546 46.1241 28.8008C46.2228 28.947 46.3495 29.0722 46.4969 29.1691C46.6444 29.266 46.8095 29.3327 46.9829 29.3653C47.1563 29.398 47.3344 29.3959 47.5069 29.3593C47.6795 29.3226 47.8431 29.2521 47.9882 29.1518C49.0975 28.4023 49.5786 28.4744 49.8755 28.5333C50.2245 28.6025 50.4926 28.807 50.9902 29.1971C51.4878 29.5872 52.2889 30.1869 53.4008 30.1985H53.4031C54.7321 30.2121 55.6477 29.4863 56.1467 29.0317C56.2823 28.9155 56.3932 28.7732 56.4727 28.6133C56.5523 28.4534 56.5989 28.2791 56.6099 28.1008C56.6208 27.9226 56.5959 27.7439 56.5365 27.5755C56.4771 27.407 56.3846 27.2522 56.2643 27.1202C56.1439 26.9883 55.9983 26.8818 55.8361 26.8071C55.6739 26.7324 55.4983 26.691 55.3198 26.6855C55.1413 26.6799 54.9635 26.7103 54.7969 26.7747C54.6303 26.8391 54.4784 26.9364 54.3501 27.0606C54.0673 27.3183 53.6904 27.5345 53.4303 27.5319C53.2139 27.5296 53.0889 27.4527 52.635 27.0969C52.1811 26.7411 51.4721 26.1303 50.3943 25.9165C50.1646 25.8709 49.9035 25.846 49.6172 25.8508ZM5.00705 25.8916C3.67803 25.878 2.76242 26.6037 2.26338 27.0584C2.1278 27.1746 2.01695 27.3169 1.9374 27.4768C1.85784 27.6367 1.8112 27.811 1.80024 27.9892C1.78928 28.1675 1.81423 28.3461 1.8736 28.5146C1.93297 28.683 2.02555 28.8378 2.14586 28.9698C2.26618 29.1018 2.41177 29.2083 2.574 29.283C2.73624 29.3577 2.91182 29.399 3.09033 29.4046C3.26884 29.4101 3.44665 29.3798 3.61322 29.3154C3.77979 29.2509 3.93172 29.1537 4.06002 29.0295C4.34282 28.7718 4.71968 28.5555 4.97986 28.5582C5.19616 28.5605 5.3212 28.6374 5.7751 28.9932C6.22899 29.349 6.93797 29.9598 8.0158 30.1736C8.93465 30.3554 10.3503 30.2089 11.9149 29.1518C12.2082 28.9535 12.4106 28.6469 12.4778 28.2993C12.5449 27.9517 12.4712 27.5917 12.2729 27.2985C12.0746 27.0053 11.768 26.8028 11.4204 26.7357C11.0728 26.6686 10.7129 26.7423 10.4196 26.9405C9.31033 27.69 8.8315 27.6157 8.53463 27.5568C8.18566 27.4876 7.91753 27.2853 7.41994 26.8952C6.92234 26.5052 6.11895 25.9032 5.00705 25.8916ZM23.2 30.16C23.0261 30.1599 22.8543 30.1989 22.6975 30.2741C22.5406 30.3494 22.4027 30.4589 22.2939 30.5947C22.1851 30.7304 22.1083 30.8889 22.069 31.0584C22.0298 31.2279 22.0292 31.404 22.0672 31.5738C22.7937 34.8044 25.6891 37.12 29 37.12C32.3109 37.12 35.2063 34.8044 35.9328 31.5738C35.9709 31.404 35.9702 31.2279 35.931 31.0584C35.8917 30.8889 35.8149 30.7304 35.7061 30.5947C35.5973 30.4589 35.4594 30.3494 35.3026 30.2741C35.1457 30.1989 34.974 30.1599 34.8 30.16H23.2ZM25.2187 32.48H32.7813C31.9145 33.7947 30.6419 34.8 29 34.8C27.3582 34.8 26.0855 33.7947 25.2187 32.48ZM14.6065 41.2616C14.2989 41.2693 14.0034 41.3832 13.7701 41.5838C13.5368 41.7845 13.3801 42.0597 13.3264 42.3627C13.0726 43.6761 12.6794 43.9628 12.427 44.1321C12.1318 44.3292 11.8005 44.3757 11.1741 44.4516C10.5466 44.5275 9.55394 44.6686 8.75892 45.4462C7.80734 46.3764 7.67301 47.5384 7.64197 48.2125C7.6339 48.3876 7.66041 48.5626 7.71998 48.7275C7.77955 48.8923 7.87101 49.0439 7.98914 49.1734C8.10727 49.3029 8.24976 49.4079 8.40847 49.4823C8.56717 49.5568 8.73899 49.5992 8.91411 49.6072C9.08922 49.6153 9.26421 49.5887 9.42906 49.5291C9.59392 49.4695 9.74542 49.3781 9.87492 49.2599C10.0044 49.1417 10.1094 48.9992 10.1838 48.8405C10.2582 48.6818 10.3006 48.51 10.3086 48.3348C10.3263 47.951 10.4383 47.5349 10.6235 47.3538C10.7786 47.2022 10.9207 47.1694 11.4935 47.1001C12.0664 47.0307 13 46.9596 13.9132 46.3479C14.6885 45.8281 15.5868 44.7236 15.9455 42.8679C15.9866 42.671 15.9826 42.4674 15.9339 42.2723C15.8852 42.0771 15.7931 41.8955 15.6643 41.7411C15.5355 41.5866 15.3735 41.4632 15.1903 41.3802C15.0071 41.2971 14.8076 41.2566 14.6065 41.2616ZM41.4428 41.2774C41.1101 41.2777 40.7895 41.4024 40.5439 41.6269C40.2983 41.8514 40.1454 42.1596 40.1154 42.491C40.0853 42.8224 40.1801 43.153 40.3813 43.4181C40.5825 43.6831 40.8754 43.8635 41.2027 43.9237C42.5161 44.1775 42.8029 44.5707 42.9721 44.8231C43.1701 45.1186 43.2156 45.4508 43.2916 46.0783C43.3675 46.7058 43.5086 47.6984 44.2862 48.4934C45.2164 49.445 46.3785 49.5771 47.0525 49.6081C47.2304 49.6214 47.4092 49.5988 47.5782 49.5418C47.7473 49.4848 47.9031 49.3944 48.0366 49.2761C48.1702 49.1577 48.2786 49.0138 48.3555 48.8528C48.4324 48.6919 48.4762 48.5171 48.4844 48.3389C48.4926 48.1607 48.465 47.9826 48.4031 47.8153C48.3413 47.6479 48.2465 47.4947 48.1244 47.3646C48.0023 47.2345 47.8554 47.1303 47.6923 47.058C47.5292 46.9857 47.3532 46.9468 47.1749 46.9437C46.791 46.9261 46.3749 46.8118 46.1938 46.6266C46.0422 46.4715 46.0094 46.3294 45.9401 45.7566C45.8708 45.1837 45.7996 44.2501 45.1879 43.3369C44.6681 42.5616 43.5636 41.6633 41.7079 41.3046C41.6207 41.2867 41.5319 41.2776 41.4428 41.2774ZM29.1835 45.8925C28.9409 45.8948 28.7035 45.9631 28.4968 46.0903C28.2902 46.2174 28.1221 46.3985 28.0107 46.6141C27.8993 46.8297 27.8488 47.0715 27.8646 47.3136C27.8805 47.5558 27.962 47.789 28.1006 47.9882C28.85 49.0975 28.7757 49.5786 28.7168 49.8755C28.6476 50.2244 28.4453 50.4926 28.0553 50.9902C27.6652 51.4878 27.0632 52.2889 27.0516 53.4008V53.403C27.038 54.7321 27.7638 55.6477 28.2184 56.1467C28.3346 56.2823 28.4769 56.3931 28.6368 56.4727C28.7967 56.5523 28.971 56.5989 29.1493 56.6099C29.3275 56.6208 29.5062 56.5959 29.6746 56.5365C29.8431 56.4771 29.9979 56.3845 30.1299 56.2642C30.2618 56.1439 30.3683 55.9983 30.443 55.8361C30.5177 55.6739 30.559 55.4983 30.5646 55.3198C30.5702 55.1413 30.5398 54.9634 30.4754 54.7969C30.4109 54.6303 30.3137 54.4784 30.1895 54.3501C29.9318 54.0673 29.7156 53.6904 29.7182 53.4302C29.7205 53.2139 29.7974 53.0889 30.1532 52.635C30.509 52.1811 31.1198 51.4721 31.3336 50.3943C31.516 49.4755 31.3696 48.0608 30.3118 46.4952C30.1893 46.3082 30.0218 46.1551 29.8246 46.0498C29.6275 45.9445 29.407 45.8904 29.1835 45.8925Z" fill="#D91141"/>
<circle opacity="0.2" cx="45" cy="13" r="13" fill="#D91141"/>
</svg>
