<svg width="58" height="58" viewBox="0 0 58 58" fill="none" xmlns="http://www.w3.org/2000/svg">
<path d="M28.9999 2.32001C14.2787 2.32001 2.31995 14.2788 2.31995 29C2.31995 43.7212 14.2787 55.68 28.9999 55.68C43.7212 55.68 55.6799 43.7212 55.6799 29C55.6799 26.2578 55.2632 23.6112 54.4928 21.1202C54.5102 21.0413 54.5193 20.9608 54.5199 20.88C54.5196 20.714 54.4836 20.5501 54.4144 20.3992C54.3452 20.2483 54.2444 20.1141 54.1189 20.0055C50.4231 9.70216 40.5656 2.32001 28.9999 2.32001ZM28.9999 4.64001C35.42 4.64001 40.5999 9.81995 40.5999 16.24C40.5999 22.6601 35.42 27.84 28.9999 27.84C28.9561 27.8398 28.9122 27.8421 28.8685 27.8468C21.2555 27.9185 15.0799 34.1304 15.0799 41.76C15.0799 45.3229 16.4377 48.5681 18.6483 51.0332C10.3732 47.1435 4.63995 38.7595 4.63995 29C4.63995 15.5326 15.5325 4.64001 28.9999 4.64001ZM39.3516 6.9668C40.7982 7.64681 42.1629 8.46312 43.4365 9.40235C43.2761 9.32219 43.0993 9.28031 42.9199 9.28001C42.6123 9.28001 42.3172 9.40222 42.0997 9.61976C41.8822 9.83731 41.7599 10.1324 41.7599 10.44C41.7599 10.7477 41.8822 11.0427 42.0997 11.2603C42.3172 11.4778 42.6123 11.6 42.9199 11.6C43.2276 11.6 43.5226 11.4778 43.7402 11.2603C43.9577 11.0427 44.0799 10.7477 44.0799 10.44C44.0796 10.1475 43.9687 9.86584 43.7696 9.65157C46.1422 11.4645 48.1638 13.6992 49.7349 16.2513C49.455 16.2866 49.1975 16.4227 49.0107 16.6341C48.8238 16.8456 48.7205 17.1179 48.7199 17.4C48.7199 17.7077 48.8422 18.0027 49.0597 18.2203C49.2772 18.4378 49.5723 18.56 49.8799 18.56C50.053 18.5597 50.2238 18.5207 50.3798 18.4458C50.5359 18.3709 50.6732 18.2621 50.7817 18.1273C52.0912 20.7488 52.9616 23.6296 53.2489 26.6868C52.9621 26.7144 52.6958 26.8477 52.5018 27.0609C52.3079 27.2741 52.2003 27.5518 52.1999 27.84C52.1999 28.1477 52.3222 28.4427 52.5397 28.6603C52.7572 28.8778 53.0523 29 53.3599 29C53.3599 30.6215 53.199 32.2051 52.8978 33.7374C52.6906 33.8274 52.5143 33.9759 52.3903 34.1646C52.2664 34.3534 52.2002 34.5742 52.1999 34.8C52.1999 35.0706 52.2945 35.3326 52.4673 35.5409C50.3372 43.2151 44.5541 49.355 37.0996 51.978C37.048 51.7137 36.9061 51.4755 36.6982 51.3044C36.4902 51.1332 36.2292 51.0398 35.9599 51.04C35.6523 51.04 35.3572 51.1622 35.1397 51.3798C34.9222 51.5973 34.7999 51.8924 34.7999 52.2C34.8002 52.3516 34.8303 52.5017 34.8883 52.6418C33.0026 53.1089 31.0313 53.36 28.9999 53.36C29.3076 53.36 29.6026 53.2378 29.8202 53.0203C30.0377 52.8027 30.1599 52.5077 30.1599 52.2C30.1599 51.8924 30.0377 51.5973 29.8202 51.3798C29.6026 51.1622 29.3076 51.04 28.9999 51.04C28.6923 51.04 28.3972 51.1622 28.1797 51.3798C27.9622 51.5973 27.8399 51.8924 27.8399 52.2C27.8398 52.4889 27.9475 52.7675 28.1419 52.9812C28.3364 53.1949 28.6035 53.3284 28.8912 53.3555C26.7761 53.3359 24.805 52.7469 23.1071 51.7446C23.0186 51.5373 22.8716 51.3602 22.6841 51.2351C22.4966 51.11 22.2767 51.0422 22.0513 51.04C21.167 50.3775 20.3825 49.593 19.7199 48.7087C19.7175 48.4839 19.6499 48.2647 19.5252 48.0776C19.4005 47.8906 19.2242 47.7438 19.0176 47.6552C18.0155 45.9585 17.4275 43.9891 17.4067 41.8756C17.4354 42.1616 17.5692 42.4268 17.7823 42.6198C17.9953 42.8128 18.2725 42.9198 18.5599 42.92C18.8676 42.92 19.1626 42.7978 19.3802 42.5802C19.5977 42.3627 19.7199 42.0677 19.7199 41.76C19.7199 41.4524 19.5977 41.1573 19.3802 40.9398C19.1626 40.7222 18.8676 40.6 18.5599 40.6C18.271 40.5999 17.9924 40.7075 17.7787 40.902C17.565 41.0964 17.4316 41.3636 17.4045 41.6513C17.424 39.5362 18.0131 37.5651 19.0153 35.8671C19.2227 35.7786 19.3997 35.6317 19.5249 35.4441C19.65 35.2566 19.7178 35.0367 19.7199 34.8113C20.3825 33.927 21.167 33.1425 22.0513 32.48C22.276 32.4776 22.4953 32.4099 22.6823 32.2853C22.8693 32.1606 23.0161 31.9842 23.1048 31.7777C24.8015 30.7755 26.7708 30.1876 28.8844 30.1668C28.5984 30.1954 28.3331 30.3293 28.1402 30.5423C27.9472 30.7554 27.8402 31.0325 27.8399 31.32C27.8399 31.6277 27.9622 31.9227 28.1797 32.1403C28.3972 32.3578 28.6923 32.48 28.9999 32.48C29.3076 32.48 29.6026 32.3578 29.8202 32.1403C30.0377 31.9227 30.1599 31.6277 30.1599 31.32C30.1599 31.0124 30.0377 30.7173 29.8202 30.4998C29.6026 30.2822 29.3076 30.16 28.9999 30.16C29.0438 30.1602 29.0877 30.158 29.1314 30.1532C35.9603 30.0889 41.6178 25.0788 42.7138 18.5419C42.7818 18.5541 42.8508 18.5601 42.9199 18.56C43.2276 18.56 43.5226 18.4378 43.7402 18.2203C43.9577 18.0027 44.0799 17.7077 44.0799 17.4C44.0799 17.0924 43.9577 16.7973 43.7402 16.5798C43.5226 16.3622 43.2276 16.24 42.9199 16.24C42.9199 12.6771 41.5622 9.4319 39.3516 6.9668ZM28.9999 11.6C26.4511 11.6 24.3599 13.6911 24.3599 16.24C24.3599 18.7889 26.4511 20.88 28.9999 20.88C31.5488 20.88 33.6399 18.7889 33.6399 16.24C33.6399 13.6911 31.5488 11.6 28.9999 11.6ZM46.3999 12.76C46.0923 12.76 45.7972 12.8822 45.5797 13.0998C45.3622 13.3173 45.2399 13.6124 45.2399 13.92C45.2399 14.2277 45.3622 14.5227 45.5797 14.7403C45.7972 14.9578 46.0923 15.08 46.3999 15.08C46.7076 15.08 47.0026 14.9578 47.2202 14.7403C47.4377 14.5227 47.5599 14.2277 47.5599 13.92C47.5599 13.6124 47.4377 13.3173 47.2202 13.0998C47.0026 12.8822 46.7076 12.76 46.3999 12.76ZM28.9999 13.92C30.295 13.92 31.3199 14.945 31.3199 16.24C31.3199 17.535 30.295 18.56 28.9999 18.56C27.7049 18.56 26.6799 17.535 26.6799 16.24C26.6799 14.945 27.7049 13.92 28.9999 13.92ZM46.3999 19.72C46.0923 19.72 45.7972 19.8422 45.5797 20.0598C45.3622 20.2773 45.2399 20.5724 45.2399 20.88C45.2399 21.1877 45.3622 21.4827 45.5797 21.7003C45.7972 21.9178 46.0923 22.04 46.3999 22.04C46.7076 22.04 47.0026 21.9178 47.2202 21.7003C47.4377 21.4827 47.5599 21.1877 47.5599 20.88C47.5599 20.5724 47.4377 20.2773 47.2202 20.0598C47.0026 19.8422 46.7076 19.72 46.3999 19.72ZM42.9199 23.2C42.6123 23.2 42.3172 23.3222 42.0997 23.5398C41.8822 23.7573 41.7599 24.0524 41.7599 24.36C41.7599 24.6677 41.8822 24.9627 42.0997 25.1803C42.3172 25.3978 42.6123 25.52 42.9199 25.52C43.2276 25.52 43.5226 25.3978 43.7402 25.1803C43.9577 24.9627 44.0799 24.6677 44.0799 24.36C44.0799 24.0524 43.9577 23.7573 43.7402 23.5398C43.5226 23.3222 43.2276 23.2 42.9199 23.2ZM49.8799 23.2C49.5723 23.2 49.2772 23.3222 49.0597 23.5398C48.8422 23.7573 48.7199 24.0524 48.7199 24.36C48.7199 24.6677 48.8422 24.9627 49.0597 25.1803C49.2772 25.3978 49.5723 25.52 49.8799 25.52C50.1876 25.52 50.4826 25.3978 50.7002 25.1803C50.9177 24.9627 51.0399 24.6677 51.0399 24.36C51.0399 24.0524 50.9177 23.7573 50.7002 23.5398C50.4826 23.3222 50.1876 23.2 49.8799 23.2ZM39.4399 26.68C39.1323 26.68 38.8372 26.8022 38.6197 27.0198C38.4022 27.2373 38.2799 27.5324 38.2799 27.84C38.2799 28.1477 38.4022 28.4427 38.6197 28.6603C38.8372 28.8778 39.1323 29 39.4399 29C39.7476 29 40.0426 28.8778 40.2602 28.6603C40.4777 28.4427 40.5999 28.1477 40.5999 27.84C40.5999 27.5324 40.4777 27.2373 40.2602 27.0198C40.0426 26.8022 39.7476 26.68 39.4399 26.68ZM46.3999 26.68C46.0923 26.68 45.7972 26.8022 45.5797 27.0198C45.3622 27.2373 45.2399 27.5324 45.2399 27.84C45.2399 28.1477 45.3622 28.4427 45.5797 28.6603C45.7972 28.8778 46.0923 29 46.3999 29C46.7076 29 47.0026 28.8778 47.2202 28.6603C47.4377 28.4427 47.5599 28.1477 47.5599 27.84C47.5599 27.5324 47.4377 27.2373 47.2202 27.0198C47.0026 26.8022 46.7076 26.68 46.3999 26.68ZM35.9599 30.16C35.6523 30.16 35.3572 30.2822 35.1397 30.4998C34.9222 30.7173 34.7999 31.0124 34.7999 31.32C34.7999 31.6277 34.9222 31.9227 35.1397 32.1403C35.3572 32.3578 35.6523 32.48 35.9599 32.48C36.2676 32.48 36.5626 32.3578 36.7802 32.1403C36.9977 31.9227 37.1199 31.6277 37.1199 31.32C37.1199 31.0124 36.9977 30.7173 36.7802 30.4998C36.5626 30.2822 36.2676 30.16 35.9599 30.16ZM42.9199 30.16C42.6123 30.16 42.3172 30.2822 42.0997 30.4998C41.8822 30.7173 41.7599 31.0124 41.7599 31.32C41.7599 31.6277 41.8822 31.9227 42.0997 32.1403C42.3172 32.3578 42.6123 32.48 42.9199 32.48C43.2276 32.48 43.5226 32.3578 43.7402 32.1403C43.9577 31.9227 44.0799 31.6277 44.0799 31.32C44.0799 31.0124 43.9577 30.7173 43.7402 30.4998C43.5226 30.2822 43.2276 30.16 42.9199 30.16ZM49.8799 30.16C49.5723 30.16 49.2772 30.2822 49.0597 30.4998C48.8422 30.7173 48.7199 31.0124 48.7199 31.32C48.7199 31.6277 48.8422 31.9227 49.0597 32.1403C49.2772 32.3578 49.5723 32.48 49.8799 32.48C50.1876 32.48 50.4826 32.3578 50.7002 32.1403C50.9177 31.9227 51.0399 31.6277 51.0399 31.32C51.0399 31.0124 50.9177 30.7173 50.7002 30.4998C50.4826 30.2822 50.1876 30.16 49.8799 30.16ZM25.5199 33.64C25.2123 33.64 24.9172 33.7622 24.6997 33.9798C24.4822 34.1973 24.3599 34.4924 24.3599 34.8C24.3599 35.1077 24.4822 35.4027 24.6997 35.6203C24.9172 35.8378 25.2123 35.96 25.5199 35.96C25.8276 35.96 26.1226 35.8378 26.3402 35.6203C26.5577 35.4027 26.6799 35.1077 26.6799 34.8C26.6799 34.4924 26.5577 34.1973 26.3402 33.9798C26.1226 33.7622 25.8276 33.64 25.5199 33.64ZM32.4799 33.64C32.1723 33.64 31.8772 33.7622 31.6597 33.9798C31.4422 34.1973 31.3199 34.4924 31.3199 34.8C31.3199 35.1077 31.4422 35.4027 31.6597 35.6203C31.8772 35.8378 32.1723 35.96 32.4799 35.96C32.7876 35.96 33.0826 35.8378 33.3002 35.6203C33.5177 35.4027 33.6399 35.1077 33.6399 34.8C33.6399 34.4924 33.5177 34.1973 33.3002 33.9798C33.0826 33.7622 32.7876 33.64 32.4799 33.64ZM39.4399 33.64C39.1323 33.64 38.8372 33.7622 38.6197 33.9798C38.4022 34.1973 38.2799 34.4924 38.2799 34.8C38.2799 35.1077 38.4022 35.4027 38.6197 35.6203C38.8372 35.8378 39.1323 35.96 39.4399 35.96C39.7476 35.96 40.0426 35.8378 40.2602 35.6203C40.4777 35.4027 40.5999 35.1077 40.5999 34.8C40.5999 34.4924 40.4777 34.1973 40.2602 33.9798C40.0426 33.7622 39.7476 33.64 39.4399 33.64ZM46.3999 33.64C46.0923 33.64 45.7972 33.7622 45.5797 33.9798C45.3622 34.1973 45.2399 34.4924 45.2399 34.8C45.2399 35.1077 45.3622 35.4027 45.5797 35.6203C45.7972 35.8378 46.0923 35.96 46.3999 35.96C46.7076 35.96 47.0026 35.8378 47.2202 35.6203C47.4377 35.4027 47.5599 35.1077 47.5599 34.8C47.5599 34.4924 47.4377 34.1973 47.2202 33.9798C47.0026 33.7622 46.7076 33.64 46.3999 33.64ZM22.0399 37.12C21.7323 37.12 21.4372 37.2422 21.2197 37.4598C21.0022 37.6773 20.8799 37.9724 20.8799 38.28C20.8799 38.5877 21.0022 38.8827 21.2197 39.1003C21.4372 39.3178 21.7323 39.44 22.0399 39.44C22.3476 39.44 22.6426 39.3178 22.8602 39.1003C23.0777 38.8827 23.1999 38.5877 23.1999 38.28C23.1999 37.9724 23.0777 37.6773 22.8602 37.4598C22.6426 37.2422 22.3476 37.12 22.0399 37.12ZM28.9999 37.12C26.4511 37.12 24.3599 39.2111 24.3599 41.76C24.3599 44.3089 26.4511 46.4 28.9999 46.4C31.5488 46.4 33.6399 44.3089 33.6399 41.76C33.6399 39.2111 31.5488 37.12 28.9999 37.12ZM35.9599 37.12C35.6523 37.12 35.3572 37.2422 35.1397 37.4598C34.9222 37.6773 34.7999 37.9724 34.7999 38.28C34.7999 38.5877 34.9222 38.8827 35.1397 39.1003C35.3572 39.3178 35.6523 39.44 35.9599 39.44C36.2676 39.44 36.5626 39.3178 36.7802 39.1003C36.9977 38.8827 37.1199 38.5877 37.1199 38.28C37.1199 37.9724 36.9977 37.6773 36.7802 37.4598C36.5626 37.2422 36.2676 37.12 35.9599 37.12ZM42.9199 37.12C42.6123 37.12 42.3172 37.2422 42.0997 37.4598C41.8822 37.6773 41.7599 37.9724 41.7599 38.28C41.7599 38.5877 41.8822 38.8827 42.0997 39.1003C42.3172 39.3178 42.6123 39.44 42.9199 39.44C43.2276 39.44 43.5226 39.3178 43.7402 39.1003C43.9577 38.8827 44.0799 38.5877 44.0799 38.28C44.0799 37.9724 43.9577 37.6773 43.7402 37.4598C43.5226 37.2422 43.2276 37.12 42.9199 37.12ZM49.8799 37.12C49.5723 37.12 49.2772 37.2422 49.0597 37.4598C48.8422 37.6773 48.7199 37.9724 48.7199 38.28C48.7199 38.5877 48.8422 38.8827 49.0597 39.1003C49.2772 39.3178 49.5723 39.44 49.8799 39.44C50.1876 39.44 50.4826 39.3178 50.7002 39.1003C50.9177 38.8827 51.0399 38.5877 51.0399 38.28C51.0399 37.9724 50.9177 37.6773 50.7002 37.4598C50.4826 37.2422 50.1876 37.12 49.8799 37.12ZM28.9999 39.44C30.295 39.44 31.3199 40.465 31.3199 41.76C31.3199 43.055 30.295 44.08 28.9999 44.08C27.7049 44.08 26.6799 43.055 26.6799 41.76C26.6799 40.465 27.7049 39.44 28.9999 39.44ZM39.4399 40.6C39.1323 40.6 38.8372 40.7222 38.6197 40.9398C38.4022 41.1573 38.2799 41.4524 38.2799 41.76C38.2799 42.0677 38.4022 42.3627 38.6197 42.5802C38.8372 42.7978 39.1323 42.92 39.4399 42.92C39.7476 42.92 40.0426 42.7978 40.2602 42.5802C40.4777 42.3627 40.5999 42.0677 40.5999 41.76C40.5999 41.4524 40.4777 41.1573 40.2602 40.9398C40.0426 40.7222 39.7476 40.6 39.4399 40.6ZM46.3999 40.6C46.0923 40.6 45.7972 40.7222 45.5797 40.9398C45.3622 41.1573 45.2399 41.4524 45.2399 41.76C45.2399 42.0677 45.3622 42.3627 45.5797 42.5802C45.7972 42.7978 46.0923 42.92 46.3999 42.92C46.7076 42.92 47.0026 42.7978 47.2202 42.5802C47.4377 42.3627 47.5599 42.0677 47.5599 41.76C47.5599 41.4524 47.4377 41.1573 47.2202 40.9398C47.0026 40.7222 46.7076 40.6 46.3999 40.6ZM22.0399 44.08C21.7323 44.08 21.4372 44.2022 21.2197 44.4198C21.0022 44.6373 20.8799 44.9324 20.8799 45.24C20.8799 45.5477 21.0022 45.8427 21.2197 46.0602C21.4372 46.2778 21.7323 46.4 22.0399 46.4C22.3476 46.4 22.6426 46.2778 22.8602 46.0602C23.0777 45.8427 23.1999 45.5477 23.1999 45.24C23.1999 44.9324 23.0777 44.6373 22.8602 44.4198C22.6426 44.2022 22.3476 44.08 22.0399 44.08ZM35.9599 44.08C35.6523 44.08 35.3572 44.2022 35.1397 44.4198C34.9222 44.6373 34.7999 44.9324 34.7999 45.24C34.7999 45.5477 34.9222 45.8427 35.1397 46.0602C35.3572 46.2778 35.6523 46.4 35.9599 46.4C36.2676 46.4 36.5626 46.2778 36.7802 46.0602C36.9977 45.8427 37.1199 45.5477 37.1199 45.24C37.1199 44.9324 36.9977 44.6373 36.7802 44.4198C36.5626 44.2022 36.2676 44.08 35.9599 44.08ZM42.9199 44.08C42.6123 44.08 42.3172 44.2022 42.0997 44.4198C41.8822 44.6373 41.7599 44.9324 41.7599 45.24C41.7599 45.5477 41.8822 45.8427 42.0997 46.0602C42.3172 46.2778 42.6123 46.4 42.9199 46.4C43.2276 46.4 43.5226 46.2778 43.7402 46.0602C43.9577 45.8427 44.0799 45.5477 44.0799 45.24C44.0799 44.9324 43.9577 44.6373 43.7402 44.4198C43.5226 44.2022 43.2276 44.08 42.9199 44.08ZM25.5199 47.56C25.2123 47.56 24.9172 47.6822 24.6997 47.8998C24.4822 48.1173 24.3599 48.4124 24.3599 48.72C24.3599 49.0277 24.4822 49.3227 24.6997 49.5402C24.9172 49.7578 25.2123 49.88 25.5199 49.88C25.8276 49.88 26.1226 49.7578 26.3402 49.5402C26.5577 49.3227 26.6799 49.0277 26.6799 48.72C26.6799 48.4124 26.5577 48.1173 26.3402 47.8998C26.1226 47.6822 25.8276 47.56 25.5199 47.56ZM32.4799 47.56C32.1723 47.56 31.8772 47.6822 31.6597 47.8998C31.4422 48.1173 31.3199 48.4124 31.3199 48.72C31.3199 49.0277 31.4422 49.3227 31.6597 49.5402C31.8772 49.7578 32.1723 49.88 32.4799 49.88C32.7876 49.88 33.0826 49.7578 33.3002 49.5402C33.5177 49.3227 33.6399 49.0277 33.6399 48.72C33.6399 48.4124 33.5177 48.1173 33.3002 47.8998C33.0826 47.6822 32.7876 47.56 32.4799 47.56ZM39.4399 47.56C39.1323 47.56 38.8372 47.6822 38.6197 47.8998C38.4022 48.1173 38.2799 48.4124 38.2799 48.72C38.2799 49.0277 38.4022 49.3227 38.6197 49.5402C38.8372 49.7578 39.1323 49.88 39.4399 49.88C39.7476 49.88 40.0426 49.7578 40.2602 49.5402C40.4777 49.3227 40.5999 49.0277 40.5999 48.72C40.5999 48.4124 40.4777 48.1173 40.2602 47.8998C40.0426 47.6822 39.7476 47.56 39.4399 47.56Z" fill="#D91141"/>
<circle opacity="0.2" cx="45" cy="13" r="13" fill="#D91141"/>
</svg>
