<svg width="104" height="104" viewBox="0 0 104 104" fill="none" xmlns="http://www.w3.org/2000/svg">
<g filter="url(#filter0_dd_28_770)">
<rect width="58" height="58" rx="29" transform="matrix(-1 0 0 1 81 23)" fill="#F8F8F8"/>
<rect x="-1" y="1" width="56" height="56" rx="28" transform="matrix(-1 0 0 1 79 23)" stroke="white" stroke-width="2"/>
</g>
<path opacity="0.5" d="M55.2937 43.2069C55.2868 43.4406 55.1906 43.6606 55.0222 43.8222L46.8443 52L55.0222 60.1778C55.1923 60.3445 55.2886 60.5714 55.2886 60.8103C55.2886 61.1678 55.0703 61.4892 54.7386 61.6233C54.4068 61.7591 54.027 61.6783 53.7778 61.4222L44.9778 52.6222C44.634 52.2785 44.634 51.7216 44.9778 51.3778L53.7778 42.5778C54.0287 42.3166 54.4154 42.2341 54.7506 42.375C55.0858 42.5142 55.3006 42.8442 55.2937 43.2069Z" fill="#40597A"/>
<defs>
<filter id="filter0_dd_28_770" x="0" y="0" width="104" height="104" filterUnits="userSpaceOnUse" color-interpolation-filters="sRGB">
<feFlood flood-opacity="0" result="BackgroundImageFix"/>
<feColorMatrix in="SourceAlpha" type="matrix" values="0 0 0 0 0 0 0 0 0 0 0 0 0 0 0 0 0 0 127 0" result="hardAlpha"/>
<feOffset dx="3" dy="3"/>
<feGaussianBlur stdDeviation="10"/>
<feColorMatrix type="matrix" values="0 0 0 0 0.294118 0 0 0 0 0.333333 0 0 0 0 0.454902 0 0 0 0.2 0"/>
<feBlend mode="normal" in2="BackgroundImageFix" result="effect1_dropShadow_28_770"/>
<feColorMatrix in="SourceAlpha" type="matrix" values="0 0 0 0 0 0 0 0 0 0 0 0 0 0 0 0 0 0 127 0" result="hardAlpha"/>
<feOffset dx="-3" dy="-3"/>
<feGaussianBlur stdDeviation="10"/>
<feColorMatrix type="matrix" values="0 0 0 0 1 0 0 0 0 1 0 0 0 0 1 0 0 0 1 0"/>
<feBlend mode="normal" in2="effect1_dropShadow_28_770" result="effect2_dropShadow_28_770"/>
<feBlend mode="normal" in="SourceGraphic" in2="effect2_dropShadow_28_770" result="shape"/>
</filter>
</defs>
</svg>
