<svg width="64" height="32" viewBox="0 0 64 32" fill="none" xmlns="http://www.w3.org/2000/svg">
    <path d="M0 0H64V24C64 28.4183 60.4183 32 56 32H8C3.58172 32 0 28.4183 0 24V0Z" fill="#D91141"/>
    <path d="M31.7188 7.99999C31.4681 7.99133 31.2268 8.12816 31.1068 8.35416C30.6928 9.13616 30.318 9.89942 29.944 10.6628C29.6313 11.3008 29.3191 11.9399 28.9831 12.5885C28.1491 12.6279 27.263 12.7765 26.4023 12.9219C25.5117 13.0719 24.67 13.2122 24 13.2122C23.7867 13.2122 23.585 13.3156 23.4596 13.4883C23.3343 13.6616 23.2999 13.8846 23.3659 14.0872C23.6132 14.8426 24.6208 15.8076 25.1042 16.1562C25.6195 16.5282 26.3617 16.9632 26.957 17.3125C27.167 17.4365 27.4092 17.5775 27.5885 17.6875C27.3945 18.7155 26.7094 21.7153 26.2201 23.112C26.1287 23.3713 26.206 23.6599 26.4154 23.8385C26.54 23.9452 26.6949 24 26.8503 24C26.9576 24 27.066 23.9745 27.1654 23.9219C28.818 23.0385 31.2333 21.7732 31.8346 21.5052C32.298 21.6325 33.7416 22.2754 34.487 22.6927L36.4792 23.8112C36.6972 23.9332 36.9645 23.9238 37.1732 23.7865C37.3812 23.6491 37.4941 23.4068 37.4674 23.1588C37.2901 21.5062 37.0922 19.6486 36.3529 17.974C37.5562 16.5286 38.6459 15.5729 40.3672 14.4349C40.5852 14.2916 40.6995 14.0334 40.6589 13.776C40.6182 13.518 40.431 13.3076 40.1797 13.237C38.1264 12.6603 36.3826 12.5422 34.3633 12.4075C33.6039 11.1155 32.912 9.76783 32.3047 8.39583C32.202 8.16316 31.9741 8.00933 31.7188 7.99999Z" fill="white"/>
</svg>
