<svg width="156" height="156" viewBox="0 0 156 156" fill="none" xmlns="http://www.w3.org/2000/svg">
<g filter="url(#filter0_d_11_304)">
<circle cx="78" cy="78" r="53" fill="white"/>
</g>
<path d="M73.9999 70C73.8231 70 73.6535 70.0702 73.5285 70.1953C73.4035 70.3203 73.3333 70.4899 73.3333 70.6667C73.3333 70.6675 73.3333 70.6684 73.3333 70.6693V78V85.3307C73.3333 85.3316 73.3333 85.3325 73.3333 85.3333C73.3333 85.5101 73.4035 85.6797 73.5285 85.8047C73.6535 85.9298 73.8231 86 73.9999 86C74.1387 85.9996 74.2739 85.9559 74.3866 85.875L74.3879 85.8763L87.6106 78.6055C87.7266 78.5524 87.825 78.4671 87.894 78.3598C87.963 78.2525 87.9998 78.1276 87.9999 78C88 77.8688 87.9613 77.7405 87.8889 77.6312C87.8164 77.5219 87.7132 77.4364 87.5924 77.3854L74.3879 70.1237H74.3866C74.2737 70.0433 74.1386 70 73.9999 70Z" fill="#404040"/>
<defs>
<filter id="filter0_d_11_304" x="0" y="0" width="156" height="156" filterUnits="userSpaceOnUse" color-interpolation-filters="sRGB">
<feFlood flood-opacity="0" result="BackgroundImageFix"/>
<feColorMatrix in="SourceAlpha" type="matrix" values="0 0 0 0 0 0 0 0 0 0 0 0 0 0 0 0 0 0 127 0" result="hardAlpha"/>
<feOffset/>
<feGaussianBlur stdDeviation="12.5"/>
<feColorMatrix type="matrix" values="0 0 0 0 0 0 0 0 0 0 0 0 0 0 0 0 0 0 0.15 0"/>
<feBlend mode="normal" in2="BackgroundImageFix" result="effect1_dropShadow_11_304"/>
<feBlend mode="normal" in="SourceGraphic" in2="effect1_dropShadow_11_304" result="shape"/>
</filter>
</defs>
</svg>
